<?xml version="1.0" encoding="utf-8"?>
<!-- Generator: Adobe Illustrator 23.0.3, SVG Export Plug-In . SVG Version: 6.00 Build 0)  -->
<svg version="1.1" id="Layer_1" xmlns="http://www.w3.org/2000/svg" xmlns:xlink="http://www.w3.org/1999/xlink" x="0px" y="0px"
	 viewBox="0 0 18 18" style="enable-background:new 0 0 18 18;" xml:space="preserve">
<path fill="none" d="M-3-3h24v24H-3V-3z"/>
<path fill="#E75667" d="M8.2,3.8v8.6L4.5,8.6c-0.3-0.3-0.8-0.3-1.1,0s-0.3,0.8,0,1.1l5.1,5.1c0.3,0.3,0.8,0.3,1.1,0l5.1-5.1
	c0.3-0.3,0.3-0.8,0-1.1c-0.3-0.3-0.8-0.3-1.1,0l-3.8,3.8V3.8C9.8,3.3,9.4,3,9,3C8.6,3,8.2,3.3,8.2,3.8z"/>
</svg>
