<?xml version="1.0" encoding="utf-8"?>
<!-- Generator: Adobe Illustrator 23.0.3, SVG Export Plug-In . SVG Version: 6.00 Build 0)  -->
<svg version="1.1" xmlns="http://www.w3.org/2000/svg" viewBox="0 0 24 24">
<path d="M9,6H7V5c0-0.6,0.4-1,1-1l0,0c0.6,0,1,0.4,1,1V6z"/>
<path d="M8,21L8,21c-0.6,0-1-0.4-1-1v-2h2v2C9,20.6,8.6,21,8,21z"/>
<path d="M16,21L16,21c-0.6,0-1-0.4-1-1v-2h2v2C17,20.6,16.6,21,16,21z"/>
<path d="M17,11h-2V8c0-0.6,0.4-1,1-1l0,0c0.6,0,1,0.4,1,1V11z"/>
<path d="M10,6H6C5.4,6,5,6.4,5,7v10c0,0.6,0.4,1,1,1h4c0.6,0,1-0.4,1-1V7C11,6.4,10.6,6,10,6z M9,16H7V8h2V16z"/>
<path d="M18,10h-4c-0.6,0-1,0.4-1,1v6c0,0.6,0.4,1,1,1h4c0.6,0,1-0.4,1-1v-6C19,10.4,18.6,10,18,10z M17,16h-2v-4h2V16z"/>
</svg>
